{"title":"AssHoleFever - Lucy Heart 1080p","uid":7749771,"size":1501316006,"categoryP":"porn","categoryS":"hd___movies","magnet":"?xt=urn:btih:8ba4f52c4fad35c18f19fea43234e0468b75ab4e&amp;dn=AssHoleFever+-+Lucy+Heart+1080p&amp;tr=udp%3A%2F%2Ftracker.openbittorrent.com%3A80&amp;tr=udp%3A%2F%2Fopen.demonii.com%3A1337&amp;tr=udp%3A%2F%2Ftracker.coppersurfer.tk%3A6969&amp;tr=udp%3A%2F%2Fexodus.desync.com%3A6969","seeders":0,"leechers":1,"uploader":"R0thschild","files":1,"time":1350867473,"description":"Gallery: \n &lt;a href=&quot;\nhttp://imagedomino.com/?g=915401&quot; rel=&quot;nofollow&quot; target=&quot;_NEW&quot;&gt;\nhttp://imagedomino.com/?g=915401&lt;/a&gt;\n\n\nVideo\nID : 2\nFormat : VC-1\nFormat profile : MP@HL\nCodec ID : WMV3\nCodec ID/Info : Windows Media Video 9\nCodec ID/Hint : WMV3\nDescription of the codec : Windows Media Video 9 - Professional\nDuration : 24mn 33s\nBit rate mode : Constant\nBit rate : 8 000 Kbps\nWidth : 1 920 pixels\nHeight : 1 080 pixels\nDisplay aspect ratio : 16:9\nFrame rate : 29.970 fps\nBit depth : 8 bits\nScan type : Progressive\nCompression mode : Lossy\nBits/(Pixel*Frame) : 0.129\nStream size : 1.37 GiB (98%)\nLanguage : English (US)\n\nAudio\nID : 1\nFormat : WMA\nFormat version : Version 2\nCodec ID : 161\nCodec ID/Info : Windows Media Audio\nDescription of the codec : Windows Media Audio 9.2 - 96 kbps, 44 kHz, stereo 1-pass CBR\nDuration : 24mn 33s\nBit rate mode : Constant\nBit rate : 96.0 Kbps\nChannel(s) : 2 channels\nSampling rate : 44.1 KHz\nBit depth : 16 bits\nStream size : 16.9 MiB (1%)\nLanguage : English (US)","torrent":{"xt":"urn:btih:8ba4f52c4fad35c18f19fea43234e0468b75ab4e","amp;dn":"AssHoleFever+-+Lucy+Heart+1080p","amp;tr":["udp%3A%2F%2Ftracker.openbittorrent.com%3A80","udp%3A%2F%2Fopen.demonii.com%3A1337","udp%3A%2F%2Ftracker.coppersurfer.tk%3A6969","udp%3A%2F%2Fexodus.desync.com%3A6969"],"infoHash":"8ba4f52c4fad35c18f19fea43234e0468b75ab4e","infoHashBuffer":{"type":"Buffer","data":[139,164,245,44,79,173,53,193,143,25,254,164,50,52,224,70,139,117,171,78]},"announce":[],"urlList":[]}}